<svg width="24" height="24" viewBox="0 0 24 24" fill="none" xmlns="http://www.w3.org/2000/svg">
<path d="M22.2125 5.65605C21.4491 5.99375 20.6395 6.21555 19.8106 6.31411C20.6839 5.79132 21.3374 4.9689 21.6493 4.00005C20.8287 4.48761 19.9305 4.83077 18.9938 5.01461C18.2031 4.17106 17.098 3.69303 15.9418 3.69434C13.6326 3.69434 11.7597 5.56661 11.7597 7.87683C11.7597 8.20458 11.7973 8.52242 11.8676 8.82909C8.3905 8.65404 5.3101 6.99005 3.24681 4.45941C2.87532 5.09767 2.68008 5.82318 2.68107 6.56167C2.68107 8.01259 3.41963 9.29324 4.54152 10.043C3.8774 10.022 3.22791 9.84264 2.64721 9.51973C2.64657 9.5373 2.64657 9.55487 2.64657 9.57148C2.64657 11.5984 4.08822 13.2892 6.00202 13.6731C5.64283 13.7703 5.27235 13.8194 4.90025 13.8191C4.63 13.8191 4.36774 13.7942 4.11282 13.7453C4.64534 15.4065 6.18889 16.6159 8.01963 16.6491C6.53816 17.8118 4.70872 18.4426 2.82546 18.4399C2.49215 18.4402 2.15912 18.4205 1.82815 18.3811C3.74007 19.6102 5.96555 20.2625 8.23845 20.2601C15.9316 20.2601 20.138 13.8875 20.138 8.36111C20.138 8.1803 20.1336 7.99886 20.1256 7.81997C20.9443 7.22845 21.651 6.49567 22.2125 5.65605Z" fill="white"/>
</svg>
