<svg width="33" height="27" viewBox="0 0 33 27" fill="none" xmlns="http://www.w3.org/2000/svg">
<path d="M18.7775 27V18.8811C18.7775 13.8462 19.9549 9.69231 22.3099 6.41958C24.7268 3.14685 28.2901 1.00699 33 0V6.13636C30.893 6.63986 29.1887 7.58392 27.8873 8.96853C26.6479 10.2902 25.8732 11.8951 25.5634 13.7832H31.1408V27H18.7775ZM0 27V18.8811C0 13.8462 1.17746 9.69231 3.53239 6.41958C5.9493 3.14685 9.48169 1.00699 14.1296 0V6.13636C12.0225 6.63986 10.3493 7.58392 9.10986 8.96853C7.87042 10.2902 7.06479 11.8951 6.69296 13.7832H12.2704V27H0Z" fill="#0062FF"/>
</svg>
