<svg width="24" height="24" viewBox="0 0 24 24" fill="none" xmlns="http://www.w3.org/2000/svg">
<path d="M12 8.4C10.0111 8.4 8.4 10.0117 8.4 12C8.4 13.9888 10.0117 15.6 12 15.6C13.9888 15.6 15.6 13.9883 15.6 12C15.6 10.0112 13.9883 8.4 12 8.4ZM12 6C15.3125 6 18 8.68452 18 12C18 15.3126 15.3155 18 12 18C8.68744 18 6 15.3155 6 12C6 8.68744 8.68452 6 12 6ZM19.8 5.69898C19.8 6.52711 19.1271 7.199 18.3 7.199C17.4719 7.199 16.8 6.52608 16.8 5.69898C16.8 4.87188 17.4729 4.2 18.3 4.2C19.126 4.19896 19.8 4.87188 19.8 5.69898ZM12 2.4C9.03063 2.4 8.54664 2.40786 7.16555 2.46936C6.2246 2.51353 5.59386 2.64008 5.00782 2.8676C4.48702 3.06959 4.11133 3.31078 3.71105 3.71106C3.30923 4.11288 3.06847 4.48756 2.8673 5.0086C2.63926 5.59598 2.51274 6.22573 2.46936 7.16538C2.40726 8.49024 2.4 8.95326 2.4 12C2.4 14.9694 2.40786 15.4534 2.46935 16.8343C2.51354 17.7749 2.64026 18.4066 2.86723 18.9912C3.06974 19.5127 3.31142 19.8893 3.70978 20.2877C4.11318 20.6905 4.48897 20.9321 5.00507 21.1313C5.59825 21.3606 6.2286 21.4873 7.16537 21.5306C8.49024 21.5927 8.95326 21.6 12 21.6C14.9694 21.6 15.4534 21.5921 16.8343 21.5306C17.7729 21.4866 18.405 21.3595 18.9912 21.1327C19.5113 20.9308 19.8891 20.6882 20.2877 20.2902C20.6911 19.8862 20.9322 19.5113 21.1317 18.994C21.3604 18.403 21.4873 17.7718 21.5307 16.8347C21.5927 15.5098 21.6 15.0467 21.6 12C21.6 9.03062 21.5921 8.54665 21.5307 7.16564C21.4865 6.22687 21.3594 5.59379 21.1324 5.00782C20.9309 4.48846 20.6889 4.11162 20.2889 3.71106C19.8864 3.30858 19.5127 3.06832 18.9913 2.8673C18.4044 2.63945 17.7737 2.51275 16.8346 2.46937C15.5098 2.40726 15.0467 2.4 12 2.4ZM12 0C15.2599 0 15.667 0.0119999 16.947 0.0719999C18.2239 0.131004 19.095 0.333 19.86 0.63C20.6509 0.935004 21.319 1.347 21.9859 2.014C22.6519 2.681 23.064 3.351 23.37 4.14C23.6659 4.904 23.868 5.776 23.928 7.053C23.985 8.333 24 8.74 24 12C24 15.26 23.988 15.667 23.928 16.947C23.869 18.224 23.6659 19.095 23.37 19.86C23.065 20.651 22.6519 21.319 21.9859 21.986C21.319 22.652 20.6479 23.064 19.86 23.37C19.095 23.666 18.2239 23.868 16.947 23.928C15.667 23.985 15.2599 24 12 24C8.74 24 8.33299 23.988 7.053 23.928C5.776 23.869 4.906 23.666 4.14 23.37C3.34999 23.065 2.68099 22.652 2.014 21.986C1.347 21.319 0.936 20.648 0.63 19.86C0.333 19.095 0.132 18.224 0.0720002 16.947C0.0150002 15.667 0 15.26 0 12C0 8.74 0.0120002 8.333 0.0720002 7.053C0.130992 5.775 0.333 4.905 0.63 4.14C0.934992 3.35 1.347 2.681 2.014 2.014C2.68099 1.347 3.351 0.936 4.14 0.63C4.905 0.333 5.775 0.132 7.053 0.0719999C8.33299 0.0149999 8.74 0 12 0Z" fill="#E5E9F0"/>
</svg>
