<svg width="111" height="20" viewBox="0 0 111 20" fill="none" xmlns="http://www.w3.org/2000/svg">
<path d="M5.30728 19L0.627281 1.12H4.65928L7.65928 13.864L10.8273 1.12H14.6673L17.8353 13.864L20.8353 1.12H24.8673L20.1873 19H15.8673L12.7473 7L9.62728 19H5.30728ZM32.2342 19.288C30.9382 19.288 29.7542 18.992 28.6822 18.4C27.6262 17.808 26.7782 17 26.1382 15.976C25.5142 14.936 25.2022 13.76 25.2022 12.448C25.2022 11.12 25.5142 9.944 26.1382 8.92C26.7782 7.896 27.6262 7.088 28.6822 6.496C29.7542 5.904 30.9382 5.608 32.2342 5.608C33.5302 5.608 34.7062 5.904 35.7622 6.496C36.8182 7.088 37.6582 7.896 38.2822 8.92C38.9222 9.944 39.2422 11.12 39.2422 12.448C39.2422 13.76 38.9222 14.936 38.2822 15.976C37.6582 17 36.8182 17.808 35.7622 18.4C34.7062 18.992 33.5302 19.288 32.2342 19.288ZM32.2342 16.048C33.2102 16.048 34.0022 15.712 34.6102 15.04C35.2182 14.368 35.5222 13.504 35.5222 12.448C35.5222 11.408 35.2182 10.552 34.6102 9.88C34.0022 9.192 33.2102 8.848 32.2342 8.848C31.2582 8.848 30.4582 9.192 29.8342 9.88C29.2262 10.552 28.9222 11.408 28.9222 12.448C28.9222 13.504 29.2262 14.368 29.8342 15.04C30.4582 15.712 31.2582 16.048 32.2342 16.048ZM41.363 19V5.896H44.723V7.864C45.059 7.048 45.531 6.496 46.139 6.208C46.763 5.904 47.475 5.752 48.275 5.752H49.043V8.872H47.915C47.035 8.872 46.323 9.144 45.779 9.688C45.235 10.216 44.963 10.968 44.963 11.944V19H41.363ZM50.6208 19V0.831999H54.2208V10.624L58.6608 5.896H63.1008L58.3488 11.176L63.0768 19H58.9968L55.6608 13.408L54.2208 14.992V19H50.6208Z" fill="#E5E9F0"/>
<path d="M64.9473 19V1.12H71.8113C73.0433 1.12 74.1313 1.336 75.0753 1.768C76.0353 2.2 76.7873 2.84 77.3313 3.688C77.8753 4.536 78.1473 5.584 78.1473 6.832C78.1473 8.048 77.8673 9.08 77.3073 9.928C76.7633 10.776 76.0113 11.424 75.0513 11.872C74.1073 12.304 73.0273 12.52 71.8113 12.52H68.6673V19H64.9473ZM68.6673 9.28H71.8353C72.6193 9.28 73.2433 9.056 73.7073 8.608C74.1873 8.16 74.4273 7.568 74.4273 6.832C74.4273 6.08 74.1873 5.48 73.7073 5.032C73.2433 4.584 72.6193 4.36 71.8353 4.36H68.6673V9.28ZM80.2692 19V5.896H83.6292V7.864C83.9652 7.048 84.4372 6.496 85.0452 6.208C85.6692 5.904 86.3812 5.752 87.1812 5.752H87.9492V8.872H86.8212C85.9412 8.872 85.2292 9.144 84.6852 9.688C84.1412 10.216 83.8692 10.968 83.8692 11.944V19H80.2692ZM96.031 19.288C94.735 19.288 93.551 18.992 92.479 18.4C91.423 17.808 90.575 17 89.935 15.976C89.311 14.936 88.999 13.76 88.999 12.448C88.999 11.12 89.311 9.944 89.935 8.92C90.575 7.896 91.423 7.088 92.479 6.496C93.551 5.904 94.735 5.608 96.031 5.608C97.327 5.608 98.503 5.904 99.559 6.496C100.615 7.088 101.455 7.896 102.079 8.92C102.719 9.944 103.039 11.12 103.039 12.448C103.039 13.76 102.719 14.936 102.079 15.976C101.455 17 100.615 17.808 99.559 18.4C98.503 18.992 97.327 19.288 96.031 19.288ZM96.031 16.048C97.007 16.048 97.799 15.712 98.407 15.04C99.015 14.368 99.319 13.504 99.319 12.448C99.319 11.408 99.015 10.552 98.407 9.88C97.799 9.192 97.007 8.848 96.031 8.848C95.055 8.848 94.255 9.192 93.631 9.88C93.023 10.552 92.719 11.408 92.719 12.448C92.719 13.504 93.023 14.368 93.631 15.04C94.255 15.712 95.055 16.048 96.031 16.048ZM106.936 19V15.4H110.536V19H106.936Z" fill="#0062FF"/>
</svg>
